<?xml version="1.0" encoding="utf-8"?>
<!-- Generator: Adobe Illustrator 13.0.0, SVG Export Plug-In . SVG Version: 6.00 Build 14948)  -->
<svg version="1.2" baseProfile="tiny" xmlns="http://www.w3.org/2000/svg" xmlns:xlink="http://www.w3.org/1999/xlink" x="0px"
	 y="0px" width="1020.393px" height="767.197px" viewBox="0 0 1020.393 767.197" xml:space="preserve">
<g id="Sea">
</g>
<g id="Other">
	<path fill-rule="evenodd" fill="#D0E4C3" d="M757.359,590.751c0,4.985-11.965,10.799-11.965,10.799
		C746.141,593.658,753.245,594.904,757.359,590.751L757.359,590.751L757.359,590.751z"/>
	<path fill-rule="evenodd" fill="#D0E4C3" d="M604.791,607.781c11.219,2.904,16.829,5.398,16.829,5.398
		c8.226,2.492,6.728-2.494,6.728-2.494c-0.375-3.322-6.728-2.491-6.728-2.491C617.876,606.533,617.129,609.857,604.791,607.781
		L604.791,607.781L604.791,607.781z"/>
</g>
<g id="Ukraine">
	<path fill-rule="evenodd" fill="#D0E4C3" stroke="#000000" stroke-width="0.216" d="M713.607,612.352c-2.992-4.157,0-6.646,0-6.646
		c0-7.894,6.355-5.814,6.355-5.814c4.861,0,2.245,7.061,2.245,7.061c0.747,2.492,0.747,4.15,0.747,5.813
		C722.955,612.765,716.6,606.951,713.607,612.352L713.607,612.352L713.607,612.352z"/>
	<path fill-rule="evenodd" fill="#D0E4C3" stroke="#000000" stroke-width="0.216" d="M555.803,562.509
		c0.375,2.905-3.739,4.565-1.87,6.642c-4.487,0-7.851,1.246-7.851,1.246c-4.863-2.076-7.854-9.551-7.854-9.551
		c7.478,2.905,10.471,0.415,10.471,0.415C551.688,562.093,553.561,562.509,555.803,562.509L555.803,562.509L555.803,562.509z"/>
	<path fill-rule="evenodd" fill="#D0E4C3" stroke="#000000" stroke-width="0.216" d="M757.359,590.751
		c0,4.985-11.965,10.799-11.965,10.799C746.141,593.658,753.245,594.904,757.359,590.751L757.359,590.751L757.359,590.751z"/>
	<path fill-rule="evenodd" fill="#D0E4C3" stroke="#000000" stroke-width="0.216" d="M604.791,607.781
		c11.219,2.904,16.829,5.398,16.829,5.398c8.226,2.492,6.728-2.494,6.728-2.494c-0.375-3.322-6.728-2.491-6.728-2.491
		C617.876,606.533,617.129,609.857,604.791,607.781L604.791,607.781L604.791,607.781z"/>
	<path fill-rule="evenodd" fill="#D0E4C3" stroke="#000000" stroke-width="0.216" d="M81.269,328.665
		c2.991-8.721,1.496-14.537,1.496-14.537c-0.747-7.89,3.738-9.553,3.738-9.553c4.114-1.661,5.235-5.398,5.235-5.398
		c-1.494-8.307,7.853-4.569,7.853-4.569c9.724,2.075,11.593-0.832,11.593-0.832c4.112-2.493,14.212-1.662,14.212-1.662
		c10.843,0.417,10.843-3.738,10.843-3.738c-0.376-2.076-5.985-1.661-5.985-1.661c-1.493-3.321-0.373-8.308-0.373-8.308
		c6.358-0.83,4.863-10.382,4.863-10.382c-1.122-8.723,4.862-7.061,4.862-7.061c2.989-3.74,8.225-0.833,8.225-0.833
		c1.122,4.157,5.235,2.908,5.235,2.908s5.236,10.384,5.236,22.016c0,0,2.99,5.398,0.373,7.059c0,0-2.243,3.325-1.495,7.893
		c0,0,7.478-0.416,7.854,2.907c0,0,1.496,3.738-5.237,4.568c7.853,1.247,3.74,7.476,6.732,8.307c0,0,4.862-4.569,4.112,3.325
		c0,0-1.123,11.212,3.739,4.567c0,0,3.365-7.892,3.74,4.983c0,0-3.74,9.969,7.104-0.413c0,0,5.61-2.907,6.732,4.567
		c0,0,7.852,2.076,6.354,13.294c0,0-5.982,2.074-2.617,10.796c0,0,1.869,2.91,0,8.307c0,0,1.123,8.309-7.478,6.648
		c0,0-7.853-2.08-17.202,12.043c0,0-1.497,3.738-3.366,2.907c0,0-2.244,7.477-9.723,9.97c0,0-6.356,9.138-3.736,19.937
		c0,0,4.111,4.982-2.62,15.367c0,0-4.862-14.124-11.593-13.292c0,0,0.749-7.89-5.234-11.212c5.982-10.8-0.748-14.953-0.748-14.953
		c-4.487-2.078,1.12-7.478-2.245-9.555c-2.99-10.382-7.479-11.212-7.479-11.212c-2.992-8.724-5.981-2.08-5.981-2.08
		c-11.967,1.663-7.479-6.644-7.479-6.644c2.241-14.952-1.124-10.799-1.124-10.799c-5.233-0.415-7.103,2.909-7.103,2.909
		c-6.357,1.246-2.619-4.568-2.619-4.568c-0.374-3.741-3.738-4.154-3.738-4.154c-4.113-1.247-1.121-9.138-9.348-8.725
		C87.251,333.235,81.269,328.665,81.269,328.665L81.269,328.665L81.269,328.665z"/>
	<path fill-rule="evenodd" fill="#D0E4C3" stroke="#000000" stroke-width="0.216" d="M47.239,293.776c0,0,1.496-6.645-3.738-10.799
		c0,0-6.358-2.49-1.872-10.799c0,0,3.366-3.738,1.124-15.369c0,0-2.619,0-1.497-9.551c0,0-7.106-1.245,15.705-24.088
		c0,0,23.561-31.985,47.492-46.937c0,0-1.497-7.476,11.219-7.062c0,0,9.348,2.078,8.227-4.153c0,0-1.496-6.231,5.981-5.817
		c0,0,0.373-2.905,0-6.646c4.115,5.401,8.601,4.984,8.601,4.984c4.861-1.244,6.733,2.079,6.733,2.079
		c4.486,0.414,4.86,4.151,4.86,4.151c1.123,3.324-6.357,4.568-3.367,7.062c0.747,4.986,3.739,2.493,3.739,2.493
		c5.61,0.831,6.732,4.569,6.732,4.569c1.871,7.893,7.478,4.983,7.478,4.983c4.49-2.491,9.724,0.416,9.724,0.416
		c4.861,1.245,4.113,5.401,4.113,5.401c-1.121,3.321,7.106,1.66,7.106,1.66c1.495,3.321-1.497,6.228-1.497,6.228
		c-1.496,9.138,1.122,12.876,1.122,12.876l0,0l7.105,8.31l0,0c4.861,6.23,0.375,10.798,0.375,10.798
		c-0.375,3.74-6.733,4.154-6.733,4.154c-14.208-0.414-10.843,6.231-10.843,6.231c2.992,4.567-3.365,4.567-3.365,4.567
		c-4.486,11.214-7.106,9.551-7.106,9.551c-2.616,3.738-7.478,0.417-9.723,4.57c-1.494,0.831-1.869,5.399-1.869,5.399
		s-4.113,1.249-5.235-2.908c0,0-5.236-2.907-8.225,0.833c0,0-5.984-1.663-4.862,7.061c0,0,1.496,9.552-4.863,10.382
		c0,0-1.12,4.987,0.373,8.308c0,0,5.609-0.415,5.985,1.661c0,0,0,4.154-10.843,3.738c0,0-10.1-0.831-14.212,1.662
		c0,0-1.869,2.906-11.593,0.832c0,0-9.347-3.738-7.853,4.569c0,0-1.122,3.737-5.235,5.398c0,0-4.485,1.663-3.738,9.553
		c0,0,1.87,5.399-1.123,14.124l0,0h-8.227l0,0c0,0-1.121-4.57-6.73-4.57c0,0-5.609,0.832-6.731-5.815c0,0,0.374-8.308-5.61-4.983
		c0,0-4.86-0.415-5.608-4.569C48.735,308.314,45.742,306.652,47.239,293.776L47.239,293.776L47.239,293.776z"/>
	<path fill-rule="evenodd" fill="#D0E4C3" stroke="#000000" stroke-width="0.216" d="M198.687,346.527c0,0,3.738-1.247,3.738,2.074
		c0,0,1.496,4.987,4.861,0.833c0,0,3.741-4.983,5.609,4.154c0,0-2.989,9.138,4.115,1.245c0,0,6.357-7.062,7.854,2.906
		c0,0,1.868,5.816,6.729,4.569c0,0,4.113-0.832,7.105,1.247c0.749-6.23-2.244-9.138-2.244-9.138
		c-4.489-4.984-2.992-19.522-2.992-19.522c-1.87-9.138,0-22.844,0-22.844c2.617-3.737-1.497-11.631,1.87-18.275
		c2.99-9.551-1.123-18.688-1.123-18.688c-2.244-7.479,0.748-9.969,0.748-9.969s2.993-3.324,2.993-12.461
		c-1.871-0.831,0.373-5.4,0.373-5.4c2.244-4.154-0.749-5.814-0.749-5.814c-4.485-12.876,1.873-18.273,1.873-18.273
		c0-12.049,4.112-7.063,3.365-16.199c-2.992-1.25-0.375-12.876-4.862-7.477c-4.113-4.155-9.35-2.911-9.35-2.911
		c-4.114-0.831-7.104,3.739-7.104,3.739c-3.364,4.568-11.219,4.568-11.219,4.568c-4.86,2.91-10.47-7.058-11.592,1.663
		c1.122,4.154-5.982,11.216-5.982,11.216c4.859,6.23,0,10.798,0,10.798c-0.375,3.74-6.733,4.154-6.733,4.154
		c-14.208-0.414-10.843,6.231-10.843,6.231c2.992,4.567-3.365,4.567-3.365,4.567c-4.486,11.214-7.106,9.551-7.106,9.551
		c-2.616,3.738-7.478,0.417-9.723,4.57c-1.494,0.831-1.869,5.399-1.869,5.399s5.236,10.384,5.236,22.016c0,0,2.99,5.398,0.373,7.059
		c0,0-2.243,3.325-1.495,7.893c0,0,7.478-0.416,7.854,2.907c0,0,1.496,3.738-5.237,4.568c7.853,1.247,3.74,7.476,6.732,8.307
		c0,0,4.862-4.569,4.112,3.325c0,0-1.123,11.212,3.739,4.567c0,0,3.365-7.892,3.74,4.983c0,0-3.74,9.969,7.104-0.413
		c0,0,5.61-2.907,6.732,4.567C191.957,332.819,200.183,335.313,198.687,346.527L198.687,346.527L198.687,346.527z"/>
	<path fill-rule="evenodd" fill="#D0E4C3" stroke="#000000" stroke-width="0.216" d="M129.88,152.557
		c-0.372-4.981-1.495-10.798-4.484-16.198c0,0-5.611-4.151,0.373-6.231c0,0,2.992-1.243,7.852,0c0-4.981-10.098-4.981-11.593-23.673
		c-2.618-3.322,0.748-11.215-4.486-12.045c-5.61-1.244-2.619-9.552-5.235-10.382c0,0-4.116-2.077,1.868-10.385l0,0l-3.364-12.459
		l0,0c0,0,0.373-9.97,5.982-9.138c0,0,9.348-1.248,11.592,3.321c0,0-2.617,8.306,8.602-1.245c0,0,7.103-3.738,11.217-9.555
		c0,0,1.123-5.398,4.112-9.137c0,0,1.497-6.229,17.201-2.49c0,0,16.454,2.49,23.56-1.663c12.341-3.738,8.6,0.83,13.088,2.492
		c0,0,3.365,0.831,8.976,1.245c-0.376,4.983,1.496,6.231,1.496,6.231c4.113-0.417,2.617,8.308-1.123,7.061
		c-2.243,2.907-3.366,7.89-3.366,7.89c-1.87,7.476,1.497,10.385,1.497,10.385c3.365,3.321,0.375,5.815,0.375,5.815
		c0.373,12.044-1.872,15.367-1.872,15.367c1.123,8.722,5.237,1.245,5.237,1.245c7.853-3.32,8.975,4.986,8.975,4.986
		c1.869,8.306,5.234,9.138,5.234,9.138c10.472,10.382,3.74,9.969,3.74,9.969c-4.487,1.66-4.113,6.645-4.113,6.645
		c8.601-0.413,6.73,6.23,6.73,6.23c0.373,5.4-7.479,2.907-7.479,4.983c6.731,4.984,1.122,7.893,1.122,7.893
		c0.373,3.323-4.862,5.813-4.862,5.813c-3.365,2.078-1.868,7.061-1.868,7.061c0.373,12.461-6.359,6.645-6.359,6.645
		c-3.74-0.414-2.991-5.398-6.729-4.982c-3.741-1.245-3.741,2.907-8.975,2.492c-7.106-1.662-7.854,2.077-7.854,2.077
		c-2.617,2.907-0.749,9.552-5.609,7.061c-8.227-1.661-6.354,10.384-6.354,10.384c5.234,5.815,0,8.305,0,8.305
		c-1.125,2.907-4.115,4.57-4.115,4.57s0.374-3.739-4.487-4.983c0,0-5.234-2.907-9.724-0.416c0,0-5.606,2.91-7.478-4.983
		c0,0-1.122-3.738-6.732-4.569c0,0-2.992,2.493-3.739-2.493c-2.99-2.493,4.489-3.737,3.367-7.062c0,0-0.375-3.737-4.86-4.151
		c0,0-1.872-3.323-6.733-2.079C138.48,157.541,133.995,157.958,129.88,152.557L129.88,152.557L129.88,152.557z"/>
	<path fill-rule="evenodd" fill="#D0E4C3" stroke="#000000" stroke-width="0.216" d="M215.141,34.601
		c-0.376,4.568,1.496,6.645,1.496,6.645c4.113-0.417,2.617,8.308-1.123,7.061c-2.243,2.907-3.366,7.89-3.366,7.89
		c-1.87,7.476,1.497,10.385,1.497,10.385c3.365,3.321,0.375,5.815,0.375,5.815c0.373,12.044-1.872,15.367-1.872,15.367
		c1.123,8.722,5.237,1.245,5.237,1.245c7.853-3.32,8.975,4.986,8.975,4.986c1.869,8.306,5.234,9.138,5.234,9.138
		c10.472,10.382,3.74,9.969,3.74,9.969c-4.487,1.66-4.113,6.645-4.113,6.645c8.601-0.413,6.73,6.23,6.73,6.23
		c0.373,5.4-7.479,2.907-7.479,4.983c6.731,4.984,1.122,7.893,1.122,7.893c0.373,3.323-4.862,5.813-4.862,5.813
		c-3.365,2.078-1.868,7.061-1.868,7.061c0.373,12.461-6.359,6.645-6.359,6.645c-3.74-0.414-2.991-5.398-6.729-4.982
		c-3.741-1.245-3.741,2.907-8.975,2.492c-7.106-1.662-7.854,2.077-7.854,2.077c-2.617,2.907-0.749,9.552-5.609,7.061
		c-8.227-1.661-6.354,10.384-6.354,10.384c5.234,5.815,0,8.305,0,8.305c-1.125,2.907-4.115,4.57-4.115,4.57
		c-1.495,3.738,6.732,2.078,6.732,2.078c1.495,2.908-1.497,6.228-1.497,6.228c-1.496,9.138,1.122,12.876,1.122,12.876l0,0l7.48,8.31
		l0,0c0,0,7.104-7.062,5.982-11.216c1.122-8.72,6.731,1.248,11.592-1.663c0,0,7.855,0,11.219-4.568c0,0,2.99-4.569,7.104-3.739
		c0,0,5.237-1.245,9.35,2.911c4.487-5.399,1.497,6.644,4.487,7.477c2.617,0,4.113-2.494,4.113-2.494
		c3.364-8.724,5.984-3.736,5.984-3.736c3.739,0.83,8.6-6.646,8.6-6.646c8.227-5.817,8.974-10.8,8.974-10.8
		c4.863-8.306,10.096-7.061,10.096-7.061c4.863,0.417,6.73-3.324,6.73-3.324c3.742-4.569,5.237,2.494,9.724,1.248
		c3.365-0.416,1.123-4.567,1.123-4.567c-3.74-5.818,1.123-7.893,1.123-7.893c2.991-6.231,0.372-9.14,0.372-9.14
		c-2.241-4.153,1.871-4.981,0-10.798c0.748-7.475-3.366-12.875,1.496-13.706c4.113-0.832,5.985-6.646,5.985-6.646l0,0l3.738-9.137
		l0,0c4.488,0,2.993-9.969,2.993-9.969c5.61-3.737,1.868-5.397,1.868-5.397c-2.243-5.815,1.125-7.895,1.125-7.895
		c0.371,3.738,0,4.57,4.484,6.23c-1.495-5.813,1.87-9.551,1.87-9.551c2.617-4.155,5.237-1.248,5.237-1.248
		c-1.497-3.738,2.242-7.059,2.242-7.059c0.748-8.31-13.833-9.138-13.833-4.985c-12.716,1.662-10.847-2.908-10.847-2.908
		c4.113-3.736-1.869-3.736-1.869-3.736c-2.993-2.08-1.497-5.817-1.497-5.817c1.124-3.738-4.486-3.738-4.486-3.738l0,0l-9.35,0.418
		l0,0c-6.354-0.831-8.228-7.893-20.191-7.479c-5.609,0.831-4.862-2.077-4.862-2.077c-0.748-4.151-8.974-3.32-8.974-3.32
		c-6.731,1.244-6.731-2.494-6.731-2.494c-1.496-4.984-9.35-3.324-9.35-3.324c-8.227,0-7.478-5.399-11.217-2.907
		C222.619,35.43,218.505,34.601,215.141,34.601L215.141,34.601L215.141,34.601z"/>
	<path fill-rule="evenodd" fill="#D0E4C3" stroke="#000000" stroke-width="0.216" d="M297.035,174.57
		c0,4.987,5.609,3.74,2.241,10.386c0,0-4.114,3.322,1.871,7.06c4.862,5.399,4.862,9.554,7.106,9.554c0,0,4.485,7.89,8.228,2.494
		c0,0,1.868,2.074,1.868,12.043c-3.365,6.23,3.739,7.893-1.868,10.801c0,0-4.862-0.417-3.368,9.138c0,0,0,4.982,5.608,11.213
		c0,0,7.479-0.415,9.724,2.907c3.364,3.737-2.245,5.817-2.245,5.817c-5.234,1.659,0,6.645,0,6.645
		c1.123,4.151-1.869,6.644-1.869,6.644c-6.358,7.063,0.375,13.708,0.375,13.708c4.486,7.062,3.367,17.861,3.367,17.861
		c3.366,16.612-9.724,9.138-9.724,9.138c-2.993-4.986-14.212-0.418-13.837,2.907c1.497,2.906-5.982,6.231-5.236,14.955
		c2.992,21.596-1.122,29.487-1.122,29.487c-2.993,3.321-7.105,1.247-7.105,1.247c-5.982,5.399-12.714,4.154-12.714,4.154
		c-2.617-3.738-7.478-0.417-7.478-0.417c-4.489,4.154-5.981-3.321-5.981-3.321c-5.985,0-10.472,2.906-10.472,2.906
		c3.736,4.153,0,7.89,0,7.89c-5.61,4.572-7.479-6.228-7.479-6.228l0,0h-8.227l0,0c1.122-6.23-2.244-9.138-2.244-9.138
		c-4.489-4.984-2.992-19.522-2.992-19.522c-1.87-9.138,0-22.844,0-22.844c2.617-3.737-1.497-11.631,1.87-18.275
		c2.99-9.551-1.123-18.688-1.123-18.688c-2.244-7.479,0.748-9.969,0.748-9.969s2.993-3.324,2.993-12.461
		c-1.871-0.831,0.373-5.4,0.373-5.4c2.244-4.154-0.749-5.814-0.749-5.814c-4.485-12.876,1.873-18.273,1.873-18.273
		c0-12.049,4.112-7.063,3.365-16.199c2.617,0,3.737-2.494,3.737-2.494c3.364-8.724,5.984-3.736,5.984-3.736
		c3.739,0.83,8.6-6.646,8.6-6.646c8.227-5.817,8.974-10.8,8.974-10.8c4.863-8.306,10.096-7.061,10.096-7.061
		c4.863,0.417,6.73-3.324,6.73-3.324C290.678,168.34,292.921,175.819,297.035,174.57L297.035,174.57L297.035,174.57z"/>
	<path fill-rule="evenodd" fill="#D0E4C3" stroke="#000000" stroke-width="0.216" d="M297.782,357.739c0,0,6.354-3.321,5.61,7.894
		c0,0,3.365,4.151-2.62,11.63c0,0-1.496-6.231-8.6-1.248c0,0-2.991,7.478-8.974,2.08c-4.862-4.986-10.471,4.568-11.967,0.83
		c0,0-7.479-4.987-7.479,2.074c0,0-1.495,5.401-4.113,3.326c0,0-0.747-6.23-5.233,4.982c0,0,0.373-2.077-3.365,1.246
		c0,0-7.106,0-14.212,3.323c0,0-0.748,4.569-4.114,10.383c-6.354,10.386-6.73,7.478-18.694,8.725l0,0l-26.177,2.074l0,0
		c0,0-14.211-4.981-19.82,8.724c0,0-3.366,7.477-16.453,8.307c6.731-10.385,2.62-15.367,2.62-15.367
		c-2.62-10.799,3.736-19.937,3.736-19.937c7.479-2.493,9.723-9.97,9.723-9.97c1.869,0.832,3.366-2.907,3.366-2.907
		c9.35-14.124,17.202-12.043,17.202-12.043c8.601,1.661,7.478-6.648,7.478-6.648c1.869-5.396,0-8.307,0-8.307
		c-3.365-8.722,2.617-10.796,2.617-10.796s4.114-0.833,4.114,2.488c0,0,1.496,4.987,4.861,0.833c0,0,3.741-4.983,5.609,4.154
		c0,0-2.989,9.138,4.115,1.245c0,0,6.357-7.062,7.854,2.906c0,0,1.868,5.816,6.729,4.569c0,0,4.113-0.832,7.105,1.247l0,0h8.227l0,0
		c0,0,1.87,10.8,7.479,6.228c0,0,3.736-3.737,0-7.89c0,0,4.486-2.906,10.472-2.906c0,0,1.492,7.475,5.981,3.321
		c0,0,4.861-3.321,7.478,0.417c0,0,6.732,1.245,12.714-4.154C291.05,358.572,295.162,361.063,297.782,357.739L297.782,357.739
		L297.782,357.739z"/>
	<path fill-rule="evenodd" fill="#D0E4C3" stroke="#000000" stroke-width="0.216" d="M435.392,404.259c0,0-7.851-0.413-6.73,5.817
		c0,0,0,5.398-10.096,4.15c0,0-3.365-5.813-8.599-0.414c0,0-8.602,1.662-13.462-3.324c0,0-3.365-9.136-4.863,0.831
		c0,0-2.244,7.477-7.852,9.14c-4.86-1.663-1.871-14.954-10.846-14.538c0,0-9.348-4.569-13.087,2.075c0,0,1.495,6.23-2.991,1.662
		c0,0,1.868-3.737,0.373-4.983c0,0-2.989-1.247-6.358,1.247c0,0,2.993-2.076,3.369-5.399c0,0,1.494-6.646-3.369-4.57
		c0,0-3.738-1.245-5.234,0.832c0,0-2.617-5.815-7.479-1.664c0,0,1.121-8.306-3.741-7.475c-7.852,0-8.227-9.551-11.591-9.969
		c0,0-1.87-5.813-9.723-2.492c-3.366-3.738-0.747,3.74-12.341,2.078c5.985-7.479,2.62-11.63,2.62-11.63
		c0.744-11.215-5.238-7.894-5.238-7.894s4.114-8.305,1.122-29.901c-0.746-8.724,6.733-12.048,5.236-14.955
		c-0.375-3.325,10.844-7.893,13.837-2.907c0,0,13.089,7.475,9.724-9.138c0,0,1.12-10.8-3.367-17.861c0,0-6.732-6.645-0.375-13.708
		c0,0,2.992-2.492,1.869-6.644c0,0-5.234-4.985,0-6.645c0,0,5.985-2.08,2.62-5.817c8.227-2.493,11.965,3.737,17.2,0.417
		c10.099-3.323,12.343,3.32,13.464-0.417c2.617-4.982,8.227-1.245,8.227-1.245s5.234,2.493,10.47-0.417
		c-0.375-5.813,1.87-4.983,5.235-5.399c9.724-3.738,4.115,7.478,7.854,8.309c0,0,2.99,6.228,0.372,8.719
		c0,0-3.365,6.646,1.87,10.388c0,0,11.595,2.075,13.836-1.25c2.244-5.398,7.106-0.83,11.218-5.398c4.862,0,0.75,8.307,2.993,10.8
		c0,0,4.114,7.475,0.749,15.368c0,0-4.114,1.662-1.497,7.062c0,0,5.235,0,9.724,9.551c0,0,2.99,6.645-2.244,13.707
		c-1.87-0.831-7.479,5.817,0.372,5.817c0,0-2.989,7.89,2.245,9.138c0,0-1.869,5.813,1.121,6.231
		c3.741-1.248-1.121,5.396,4.489,6.644c5.982,4.57,1.121,9.138,5.609,10.8c6.358-0.416,0.748,7.475,3.365,7.889
		c0,0,4.862,1.248,2.245,9.138c0,0-6.358,3.74,1.12,6.231c0,0-4.488,8.723-8.227,1.661c0,0-3.365-2.908-6.357,5.4
		C434.271,389.307,429.784,397.201,435.392,404.259L435.392,404.259L435.392,404.259z"/>
	<path fill-rule="evenodd" fill="#D0E4C3" stroke="#000000" stroke-width="0.216" d="M328.073,84.441c0,0,6.354,3.737,6.354-7.477
		c0,0,1.498-9.551,6.358-2.492c0,0,5.61,7.062,12.717-0.413c0,0-0.75-3.323,5.608-6.23c2.241,2.074-0.748,7.891,2.991,9.554
		c0,0,0,4.982,4.86,2.076c0,0,1.496-4.568,7.479-1.248c0,0,4.112-0.414,3.739,5.399c0,0-1.87,6.231,6.731,9.969
		c0,0,0-14.953,11.968-14.953c0,0,5.981-9.138,9.347-4.154c0,0,4.862,5.401,4.862,12.048c0,0,0.373,10.384,5.233,12.044
		c0,0,5.985,10.8-5.233,14.121l0,0l0.373,10.799l0,0c0,0,6.357-3.321,10.097,6.644c-0.375,7.895-5.236,8.311-3.74,10.801
		c0,0,5.983,4.155,4.862,16.2c0,0,6.357,2.492,0.747,12.044c0,0-3.364,2.492-1.869,13.292c-0.375,6.231-5.608,7.062,1.122,9.968
		c0,0,4.487,0,4.487,9.138c0,0,5.607,1.662,4.86,12.876c0,0,3.741,4.568-1.121,8.306c0,0-2.245,9.138,2.617,12.876
		c0,0,2.245,2.907-7.479,9.555c0,0-3.365,4.567-8.6,4.982c0,0-1.123,3.324,0.373,7.476c0,0,2.617,2.491,1.122,6.23
		c-3.739,4.569-9.349,0-11.592,5.398c-2.241,3.325-13.836,1.664-13.836,1.664c-5.234-4.156-1.87-10.802-1.87-10.802
		c2.618-2.491-0.372-8.719-0.372-8.719c-3.74-0.832,1.87-12.047-7.854-8.309c-3.365,0.416-5.61-0.414-5.235,5.399
		c-5.236,2.91-10.47,0.417-10.47,0.417s-5.609-3.737-8.227,1.245c-1.121,3.737-3.365-2.907-13.464,0.417
		c-5.234,3.32-8.973-2.91-17.2-0.417c-2.62-3.322-10.098-2.907-10.098-2.907c-5.608-6.231-5.608-11.213-5.608-11.213
		c-1.494-9.555,3.368-9.138,3.368-9.138c5.606-2.908-1.497-4.57,1.868-10.801c0-9.969-1.868-12.043-1.868-12.043
		c-3.742,5.396-8.228-2.494-8.228-2.494c-2.62,0-2.245-4.154-7.106-9.554c-5.985-3.738-1.871-7.06-1.871-7.06
		c3.368-6.646-2.241-5.816-2.241-10.799c3.364,0,0.747-4.567,0.747-4.567c-3.74-5.818,1.123-7.893,1.123-7.893
		c2.991-6.231,0.372-9.14,0.372-9.14c-2.241-4.153,1.871-4.981,0-10.798c0.748-7.475-3.366-12.875,1.496-13.706
		c4.113-0.832,5.985-6.646,5.985-6.646l0,0l3.738-9.137l0,0c4.488,0,2.993-9.969,2.993-9.969c5.61-3.737,1.868-5.397,1.868-5.397
		c-2.243-5.815,1.125-7.895,1.125-7.895c0.371,3.738,0,4.57,4.484,6.23c-1.495-5.813,1.87-9.551,1.87-9.551
		C325.453,81.533,328.073,84.441,328.073,84.441L328.073,84.441L328.073,84.441z"/>
	<path fill-rule="evenodd" fill="#D0E4C3" stroke="#000000" stroke-width="0.216" d="M418.939,264.702
		c1.495-3.737-1.122-7.062-1.122-7.062c-1.496-4.152-0.373-7.476-0.373-7.476c5.235-0.415,8.6-4.982,8.6-4.982
		c9.724-6.647,7.479-9.555,7.479-9.555c-4.862-3.738-2.617-12.876-2.617-12.876c4.862-3.738,1.121-8.306,1.121-8.306
		c0.747-11.214-4.86-12.876-4.86-12.876c0-9.138-4.487-9.138-4.487-9.138c-6.73-2.907-1.497-3.737-1.122-9.968
		c-1.495-10.8,1.869-13.292,1.869-13.292c5.61-9.552-0.747-12.044-0.747-12.044c1.121-12.045-4.862-16.2-4.862-16.2
		c-1.496-2.49,3.365-2.906,3.74-10.801c-3.74-9.964-10.097-6.644-10.097-6.644l0,0l-0.373-10.799l0,0
		c11.219-3.321,5.233-14.121,5.233-14.121c7.105-2.078,9.351-7.892,13.463-7.476c0,0,2.617-9.555,7.853-0.83
		c0,0,1.868,5.398,7.854,0.83c0,0,3.737-3.74,9.723-2.91c0,0,7.852-0.83,10.469,4.569c0,0,5.985,4.568,4.114,8.723
		c0,0,1.871,5.814,10.47,7.894l0,0l-0.372,16.197l-0.376,11.215l0,0c0,0,6.73-1.247,5.61,4.983c0,0-1.497,7.062,3.739,7.062
		c0,0,5.235,2.076,2.243,7.061c0,0-2.991,6.23,10.099,4.153c0,0,7.104-2.906,10.842,4.985c0,0,2.244,3.739,2.244,7.061
		c0,0-1.121,6.646,3.738,8.722c0,0,6.731,6.231,21.691,0.832c2.244-4.156,6.731-1.662,6.731-4.57c0,0,1.494-9.138,7.104-0.413
		c0,0,1.492,4.983,7.479,3.737c0,0-8.226,4.568-0.748,12.044c5.611-2.077,1.498,4.568,5.234,5.401
		c1.123,6.644-1.494,10.382-1.494,10.382s-8.602,2.077-7.854,8.724c1.496,2.491-4.861,2.491-5.238,6.645c0,0,2.621,7.061-2.24,8.724
		c0,0-1.123,14.535-8.227,13.706c0,0-8.226,2.074-11.594-1.663c0,0-4.486-5.815-8.602,0.415c0,0-7.104-3.322-6.729,10.799
		c0,0,0.371,8.307-2.994,14.538c0,0-0.371,4.568-0.371,9.136c0,0-8.227,4.57-8.602,9.554c0,0-1.122,6.646-11.966,7.477
		c0,0-3.368-4.568-14.212,0c0,0-4.861-6.23-4.861,3.322c0,0,1.124,7.477-2.242,4.984c0,0-2.993-3.323-8.228-3.323
		c0,0-4.112-7.889-6.732,0c0,0-8.227-0.413-10.097,4.57c0,0-2.992,5.398-7.477,4.154c-3.367,0.83-0.376-6.231-5.61-3.738
		c-4.486-9.556-9.348-9.138-9.348-9.138c-2.617-5.399,1.497-7.062,1.497-7.062c3.365-7.894-0.749-15.368-0.749-15.368
		C419.314,272.178,423.8,264.702,418.939,264.702L418.939,264.702L418.939,264.702z"/>
	<path fill-rule="evenodd" fill="#D0E4C3" stroke="#000000" stroke-width="0.216" d="M565.152,198.663
		c-3.74-0.83,0.75-8.308-4.861-6.231c-7.478-7.476,0.748-12.044,0.748-12.044c-5.986,1.246-7.479-3.737-7.479-3.737
		c-5.61-8.725-7.104,0.413-7.104,0.413c0,2.908-4.487,0.414-6.731,4.57c-14.96,5.399-21.691-0.832-21.691-0.832
		c-4.859-2.075-3.738-9.138-3.738-9.138c0-3.324-2.244-6.645-2.244-6.645c-3.738-7.891-10.842-4.985-10.842-4.985
		c-13.09,2.077-10.099-4.153-10.099-4.153c2.993-4.985-2.243-7.061-2.243-7.061c-5.236,0-3.739-7.062-3.739-7.062
		c1.12-6.23-5.61-4.983-5.61-4.983l0,0l0.376-11.215l0.372-16.197l0,0c0,0-0.372-4.987,3.74-3.741
		c4.114-9.138-3.364-9.138-1.495-19.521c0,0-5.235-4.151,1.495-17.029c3.74-3.32,1.87-11.628,6.732-17.859
		c4.86-2.491,3.741-7.061,7.104-7.891c0,0,4.487-3.325,4.115-8.308c0,0-2.246-6.645,12.338-2.907c0,0,5.237,7.89,6.356-0.83
		c0,0,2.619-7.475,19.073-1.662c0,0,13.089-2.076,13.836,2.906c0,0-2.621,4.986,7.479,2.079c0,0,3.365,2.076,12.713-7.062
		c0-7.477,2.992-7.477,3.365-14.537c0,0-4.861-9.138,10.1-4.156c0,0,8.599,5.818,12.34,4.156c7.479,0,5.98,1.245,17.95-8.723
		c0,0,0.743-4.153,15.329-2.077c-2.244,3.738-3.738,10.382-3.738,10.382c-4.859,12.047-0.75,13.708-0.75,13.708
		c5.982,1.661,5.982,6.229,5.982,6.229c0.375,2.079-5.608-1.244-4.484,5.399c-1.873,1.663-0.748,4.157-0.748,4.157
		c1.121,5.399-5.611,4.151-5.611,4.151c-5.61,1.248-7.104,8.308-7.104,8.308c-7.104,5.814,1.124,15.366,1.124,15.366
		c2.616,0,1.12,9.971,1.12,9.971c3.738,5.815-2.617,3.736-1.87,12.874c1.87,8.307-3.738,7.063-3.738,7.063
		c2.616,9.138,1.494,14.536,1.494,14.536c-0.747,3.323-6.357,0.416-4.862,7.477c-2.244,4.985,3.368,6.648,3.368,6.648
		c2.616-1.25,0.747,4.981,4.11,4.15c2.617,0,1.498-3.737,5.61-2.906c-4.863,6.644,0,9.968,0,9.968c-0.374,5.4-4.863,6.23-4.112,10.8
		c-0.751,3.737,4.112,7.476,1.119,12.876c0,9.551-3.363,15.782-3.363,15.782c0,4.568-6.358,9.555-6.358,9.555
		c-4.113,7.475-9.349,5.813-9.349,5.813c-10.471,4.985-15.332,0.417-15.332,0.417c-4.861-5.4-10.845-0.417-10.845-0.417
		C570.762,201.57,565.152,198.663,565.152,198.663L565.152,198.663L565.152,198.663z"/>
	<path fill-rule="evenodd" fill="#D0E4C3" stroke="#000000" stroke-width="0.216" d="M632.836,2.202
		c-2.244,3.738-3.738,10.382-3.738,10.382c-4.859,12.047-0.75,13.708-0.75,13.708c5.982,1.661,5.982,6.229,5.982,6.229
		c0.375,2.079-5.608-1.244-4.484,5.399c-1.873,1.663-0.748,4.157-0.748,4.157c1.121,5.399-5.611,4.151-5.611,4.151
		c-5.61,1.248-7.104,8.308-7.104,8.308c-7.104,5.814,1.124,15.366,1.124,15.366c2.616,0,1.12,9.971,1.12,9.971
		c3.738,5.815-2.617,3.736-1.87,12.874c1.87,8.307-3.738,7.063-3.738,7.063c2.616,9.138,1.494,14.536,1.494,14.536
		c-0.747,3.323-6.357,0.416-4.862,7.477c-2.244,4.985,3.368,6.648,3.368,6.648c2.616-1.25,0.747,4.981,4.11,4.15
		c2.617,0,1.498-3.737,5.61-2.906c-4.863,6.644,0,9.968,0,9.968c-0.374,5.4-4.863,6.23-4.112,10.8
		c-0.751,3.737,4.112,7.476,1.119,12.876c0,9.551-3.363,15.782-3.363,15.782c6.356,3.738,7.855,0.417,7.855,0.417
		c2.989-4.154,9.721,1.661,9.721,1.661c1.869,2.076,13.461-0.417,16.454,2.076c8.227,1.662,8.227-2.076,8.227-2.076
		c3.737-6.648,7.478,0,7.478,0c4.861,4.982,7.104,0,7.104,0c0.747-5.399,8.229-4.985,8.229-4.985
		c-0.375,12.462,4.485,14.122,4.485,14.122c3.741,4.57,4.115,11.628,4.115,11.628c2.99-1.243,2.99,3.738,2.99,3.738
		c6.356,2.494,1.869,4.986,1.869,4.986c-2.615,5.399,3.742,4.983,3.742,4.983c6.354,1.248,9.719-3.321,9.719-3.321
		c5.985-3.738,11.219-0.83,11.219-0.83c2.994-4.986,8.602-4.568,8.602-4.568c2.243-6.23,8.977-4.569,8.977-4.569
		c1.119-7.476,11.217-11.632,13.086-8.307c1.869-2.91,11.219,1.244,11.219-6.23c-2.615,0-4.859-1.664-4.859-1.664
		c-0.75-10.382-4.863-9.138-4.863-9.138c-6.355-1.244-4.862-11.631-4.862-11.631c-5.606-5.398,2.244-3.736,1.497-11.629
		c0-5.4-4.113-6.645-3.738-8.721c-4.115-3.738-4.115-10.799-4.115-10.799c-4.859-4.157-1.494-7.893-1.494-7.893
		c4.113-4.151-3.74-3.321-3.74-3.321c-5.234,3.321-6.731-6.648-6.731-6.648c0-12.875-11.22-7.474-11.22-7.474
		c-7.477,6.231-15.329,1.66-15.329,1.66c-2.991-5.813-8.976-3.737-8.976-3.737c-3.74-4.57-7.478,0-7.478,0
		c-11.966,3.321-4.862-3.324-4.862-3.324c4.862-9.138-1.496-8.308-1.496-8.308c-2.99,0.417-0.748-10.798-0.748-10.798
		c0-7.059-5.236-12.458-5.236-12.458c-6.73-5.817,5.61-8.725,5.61-8.725c9.349,0,8.602-6.644,8.602-6.644
		c0.374-5.401-8.976-10.8-8.976-10.8c-9.35-6.23-10.471-14.124-10.471-14.124c-4.113-7.059,5.611-9.551-3.736-14.949
		c-4.863-0.416-8.229-10.801-8.229-10.801c-4.488-10.382-8.602-3.738-8.602-3.738c-4.861,0-8.6,7.062-8.6,7.062
		C635.079,10.51,639.942,0.54,632.836,2.202L632.836,2.202L632.836,2.202z"/>
	<path fill-rule="evenodd" fill="#D0E4C3" stroke="#000000" stroke-width="0.216" d="M719.59,211.539
		c1.124,7.475-1.119,11.631-1.119,11.631c-5.609,8.305,1.492,10.796,1.492,10.796c1.871,3.323,6.358-1.245,10.472,5.399
		c9.351-0.413,6.733,7.478,6.733,7.478c2.242,11.215,9.346,8.308,9.346,8.308c4.862-3.324,4.862,4.151,4.862,4.151
		c3.366,14.122-1.494,13.292-1.494,13.292c-7.107-1.248-3.368,6.645-3.368,6.645c4.488,2.493-1.495,9.554-1.495,9.554
		c-2.993,4.153-9.722,2.49-9.722,2.49c-14.209-4.982-7.852,13.292-7.852,13.292c-4.861,2.493-10.1-1.244-13.089,2.077
		c-2.244,2.493-8.228,0.831-14.585,7.894c-5.981-0.417-7.104,9.968-7.104,9.968c-6.357,7.893-1.871,9.138-1.871,9.138
		c1.871,7.061-1.496,10.799-1.496,10.799s-1.494,4.983-9.723-1.663c0,0-7.104-3.738-10.844-5.814c0,0-2.244-7.062-16.453-4.154
		c0,0-4.861,1.662-8.227-0.831c-2.618-2.907-6.359,3.325-8.227-7.061c0,0,0.748-5.813-6.73-5.813c0,0-1.87-3.738-4.859-7.063
		c0,0-2.994-5.4-14.214-5.813c0,0-1.869-3.737-5.607-4.986c0,0,0.374-9.138-4.487-15.369c0,0-4.864-5.812-0.373-11.626
		c0,0,6.354-0.833-0.748-7.479c0,0,1.121-5.398-7.106-7.059c0,0,0-6.23-7.107-9.554c0,0-9.346-6.645-3.363-7.89
		c0,0,2.243-7.062-0.749-9.554c0,0-0.75-5.814-4.859-5.814c0,0-4.115,1.244-4.115-10.385c0,0-7.104-0.832-7.477-8.722
		c0,0,2.617-2.493,1.494-8.724c0,0,5.236,2.493,8.974-4.568c0,0,5.983-4.983,10.845,0.417c0,0,4.861,4.568,15.332-0.417
		c0,0,5.235,1.662,9.349-5.813c0,0,6.358-4.987,6.358-9.555c6.356,3.738,7.855,0.417,7.855,0.417
		c2.989-4.154,9.721,1.661,9.721,1.661c1.869,2.076,13.461-0.417,16.454,2.076c8.227,1.662,8.227-2.076,8.227-2.076
		c3.737-6.648,7.478,0,7.478,0c4.861,4.982,7.104,0,7.104,0c0.747-5.399,8.229-4.985,8.229-4.985
		c-0.375,12.462,4.485,14.122,4.485,14.122c3.741,4.57,4.115,11.628,4.115,11.628c2.99-1.243,2.99,3.738,2.99,3.738
		c6.356,2.494,1.869,4.986,1.869,4.986c-2.615,5.399,3.742,4.983,3.742,4.983c6.354,1.248,9.719-3.321,9.719-3.321
		C714.356,208.631,719.59,211.539,719.59,211.539L719.59,211.539L719.59,211.539z"/>
	<path fill-rule="evenodd" fill="#D0E4C3" stroke="#000000" stroke-width="0.216" d="M761.102,187.865
		c0,7.474-8.979,3.32-10.848,6.23c-1.869-3.325-11.967,0.831-13.086,8.307c0,0-6.733-1.661-8.977,4.569c0,0-5.607-0.833-8.602,4.15
		c1.124,7.479-1.119,12.049-1.119,12.049c-5.609,8.305,1.492,10.796,1.492,10.796c1.871,3.323,6.358-1.245,10.472,5.399
		c9.351-0.413,6.733,7.478,6.733,7.478c2.242,11.215,9.346,8.308,9.346,8.308c4.862-3.324,4.862,4.151,4.862,4.151
		c3.366,14.122-1.494,13.292-1.494,13.292c-7.107-1.248-3.368,6.645-3.368,6.645c4.488,2.493-1.495,9.554-1.495,9.554
		c-2.993,4.153-9.722,2.49-9.722,2.49c-14.209-4.982-7.852,13.292-7.852,13.292c1.12,2.907,11.216-2.074,15.705,5.814
		c8.6,8.307,12.34,13.292,18.322,11.631c6.357,1.245,14.213,0,14.213,0c12.711-8.308,11.963,8.305,11.963,8.305
		c10.844,5.4,8.227,9.97,8.227,9.97c1.497,5.399,4.861,6.231,4.861,6.231c5.984,2.491,4.861,8.306,4.861,8.306
		c0.75,10.8,6.358,0,6.358,0c2.991-9.969,9.347-4.983,9.347-4.983c1.124,4.568,8.227-0.832,8.227-0.832
		c1.125-9.137-2.615-7.062-1.869-11.629c0,0-1.12-6.646,5.984-3.324c2.616,1.661,2.991-2.907,4.488-3.321
		c0,0,2.99,2.907,7.104,2.907c0,0-2.618-3.325,2.617-5.813c0,0,2.992-3.324,5.61,0.827c0,0-2.244-5.814,4.113-9.138
		c0,0,5.607-2.076,2.613-7.889c0,0,0-4.156,8.604-11.631c0,0,7.105-2.907,7.105-7.477c0-3.738-6.357,0.416-5.238-2.906
		c0,0,2.621-7.062,7.855-2.493c0,0,7.478,1.245,10.846-1.249c0,0,5.607-8.305,1.119-9.55c0,0-2.618-4.155,0-16.614
		c0,0,4.113-3.323,1.496-8.722c-3.365-5.814,4.113-6.231,1.873-9.553c0,0-3.742-3.323-1.498-7.478
		c1.869-1.245-0.748-5.398,2.99-9.138c0,0-3.738-3.738-1.121-8.306c-2.244-0.416-3.365-3.739-3.365-3.739
		c-5.234-9.138-13.463-8.307-13.463-8.307c-4.484-9.551-8.6-12.46-8.6-12.46c1.122-12.458-4.485-10.382-4.485-10.382
		c-5.238-2.494-4.862-7.063-4.862-7.063c-0.748-4.15-7.48-2.49-7.48-2.49c-10.468,12.876-16.078,9.967-16.078,9.967
		c-8.229-1.659-13.836,6.648-13.836,6.648c-6.358,2.074-5.234,5.399-5.234,5.399c-5.237,6.228-7.481,0-7.481,0
		c-5.233-10.8-8.974-3.325-8.974-3.325c-5.234,3.739-8.602-4.568-8.602-4.568c-4.113-10.382-11.965-8.306-11.965-8.306
		c-10.848-1.245-13.836,5.813-13.836,5.813C764.838,187.033,762.967,187.865,761.102,187.865L761.102,187.865L761.102,187.865z"/>
	<path fill-rule="evenodd" fill="#D0E4C3" stroke="#000000" stroke-width="0.216" d="M889.736,285.883c0,0,5.234-8.305,0.746-9.55
		c0,0-2.618-4.155,0-16.614c0,0,4.113-3.323,1.496-8.722c-3.365-5.814,4.113-6.231,1.873-9.553c0,0-3.742-3.323-1.498-7.478
		c1.869-1.245-0.748-5.398,2.99-9.138c0,0-3.738-3.738-1.121-8.306c1.121,0.416,2.244,0,3.365-0.832c0,0,5.235,1.662,4.861-7.06
		c0,0-2.619-7.477,3.74-7.061c5.235-0.83,2.616,4.568,8.227,7.061c0,0,5.61,2.908,8.229,0.829c0,0,6.73-3.322,10.844,4.986
		c0,0,8.973,0.83,8.973,3.324c0,0,5.234,7.475,10.844,0c0,0,3.741-12.879,8.229,1.66c0,0,2.615,8.309,10.096,4.984
		c0,0,2.242-3.323,7.48,0.415c0,0,5.234-1.658,4.486,5.399c0,0,1.498,7.062,9.348,5.817c0,0,2.619,7.059,10.099,0.413
		c0,0,1.495-5.813,8.602-5.399c0,0,7.477,1.663,0.374,7.477c0,0-7.48,2.492,2.239,13.706c0,0,10.849,9.968-3.737,25.336
		c-1.119,12.876-8.227,6.648-10.844,10.385c0,0-7.479,1.246-1.123,9.551c0,0-0.748,5.817,8.977,3.738c0,0,2.615,0,5.236,2.494
		c5.232-7.476,8.599-0.415,3.365,3.323c0,0,1.495,3.738-7.48,1.661c0,0-4.113-4.154-8.229,4.154c0,0-1.869,5.813-2.24,13.292
		c0,0-2.619,7.476,5.607,5.813c0,0,7.479-2.492,7.479,9.969c0,0,5.609,9.138,2.617,12.045c0,0-5.982,2.076,2.246,3.323
		c0,0,9.346-4.154,0,11.632c0,0-3.365,8.306-3.365,24.088c0.372,12.043,1.119,10.801-7.107,11.63c0,0-11.592-1.663-25.428,1.247
		c0,0-4.112,0.833-11.592,0.833l0,0v-6.647l0,0c0,0,2.242-7.893-7.479-8.306c0,0-5.984,2.907-7.855-3.324
		c0,0,4.491-3.738-12.338-6.646c0,0,1.869-8.306-10.471-20.768c0,0,0.745-4.154-7.852-4.568c0.371-8.308-4.488-5.4-4.113-12.044
		c0,0-3.742-2.08-1.125-11.215c3.365-2.077-2.617-4.154-1.119-7.06c0,0,5.98-0.831-2.992-8.309c0,0,1.121-7.061-6.73-6.646
		c0,0-10.473,0.418-4.115-4.569c4.486-1.661-1.12-3.321-0.371-8.307c0,0,1.492-9.968-5.237-6.23c0,0-4.487,0.832-4.114-2.075
		C892.727,290.039,894.596,286.301,889.736,285.883L889.736,285.883L889.736,285.883z"/>
	<path fill-rule="evenodd" fill="#D0E4C3" stroke="#000000" stroke-width="0.216" d="M829.529,349.85
		c7.106,1.658,2.994,3.738,2.994,3.738c-2.615,3.321,2.242,5.399,2.617,1.245c2.615-3.325,5.982-1.245,5.982-1.245
		c0.376,2.074-4.862,4.983-3.367,10.798c-2.242,13.29,1.869,13.29,1.869,13.29c4.49,1.248,5.238,6.648,5.238,6.648
		c1.496,4.982-1.498,6.644-1.498,6.644c-4.11,0.415-0.372,7.891-0.372,7.891c3.366,8.725-6.357,5.399-6.357,5.399
		c-6.357-8.307-9.722-2.491-9.722-2.491c-4.113,5.816,0,9.552,0,9.552c4.859,4.57,0,5.815,0,5.815
		c-6.731,1.248,0.371,8.309,0.371,8.309c0.748,4.568,2.993,3.738,2.993,3.738c3.366,0,3.739,6.231,3.739,6.231
		c1.871,4.151,4.862,9.967,4.862,9.967c4.858-1.661,7.103,3.321,7.103,3.321c1.871,3.324,4.113-3.321,7.107,2.494
		c3.737,0.413,7.851,5.814,7.851,5.814c8.229-0.832,5.612,4.982,5.612,4.982c-8.602,2.078-2.99,4.153-2.99,4.153
		s4.111,1.663-2.622,3.323c-3.363-0.417,0.749,5.813-4.86,3.737c-10.098,1.247-4.86,6.233-4.86,6.233
		c2.244,4.154-2.993,6.643-2.993,6.643c9.351,2.078,9.351,10.386,9.351,10.386c9.722,0,7.478,5.401,7.478,5.401
		c1.121,3.734-2.242,4.15-2.242,4.15c-8.229,1.663-1.123,8.309-1.123,8.309c1.123-0.833,2.62-1.665,3.739-2.496
		c0,0,7.481-8.305,13.462,0c0,0,3.363-9.963,13.088-20.35c14.211,0.832,19.074-5.813,32.905-3.322c0,0,1.875-1.246,4.864-2.908
		c0-6.232-4.114-9.137,0-13.291c3.363-1.66,5.607-7.061,0-6.646c-4.864,0.418-0.373-7.891-0.373-7.891
		c1.866-3.322-2.616-17.03,4.113-22.844c5.234-4.568,7.852-1.662,13.087-3.736c5.983-2.912,1.12-6.65,5.983-6.23
		c4.861,0.83,3.363-7.479,3.363-7.479c-0.746-13.289,8.605-10.797,8.605-10.797c1.494,0,2.986,0.416,4.111,0.416l0,0v-6.647l0,0
		c0,0,2.242-7.893-7.479-8.306c0,0-5.984,2.907-7.855-3.324c0,0,4.491-3.738-12.338-6.646c0,0,1.869-8.306-10.471-20.768
		c0,0,0.745-4.154-7.852-4.568c0.371-8.308-4.488-5.4-4.113-12.044c0,0-3.742-2.08-1.125-11.215c3.365-2.077-2.617-4.154-1.119-7.06
		c0,0,5.98-0.831-2.992-8.309c0,0,1.121-7.061-6.73-6.646c0,0-10.473,0.418-4.115-4.569c4.486-1.661-1.12-3.321-0.371-8.307
		c0,0,1.492-9.968-5.237-6.23c0,0-4.487,0.832-3.738-2.075c0,0,1.12-3.738-3.739-4.156c-3.368,2.494-10.846,1.249-10.846,1.249
		c-5.234-4.568-7.855,2.493-7.855,2.493c-1.119,3.321,5.238-0.832,5.238,2.906c0,4.57-7.105,7.477-7.105,7.477
		c-8.604,7.475-8.604,11.631-8.604,11.631c2.994,5.813-2.613,7.889-2.613,7.889c-6.357,3.323-4.113,9.138-4.113,9.138
		c-2.618-4.151-5.61-0.827-5.61-0.827c-5.235,2.488-2.617,5.813-2.617,5.813c-4.113,0-7.104-2.907-7.104-2.907
		c-1.497,0.415-1.872,4.982-4.488,3.321c-7.104-3.321-5.984,3.324-5.984,3.324C826.914,341.957,830.654,340.712,829.529,349.85
		L829.529,349.85L829.529,349.85z"/>
	<path fill-rule="evenodd" fill="#D0E4C3" stroke="#000000" stroke-width="0.216" d="M827.285,425.859
		c-5.232-2.909-6.73,0.416-6.73,0.416c-1.869,2.488-5.982-0.416-5.982-0.416c-5.609,5.398-5.98,1.242-5.98,1.242
		c-4.488-4.98-5.612-1.242-5.612-1.242c-4.858,2.49-5.235-2.496-5.235-2.496c6.734-4.98-1.122-7.057-1.122-7.057
		c-4.487-6.23-2.244-9.969-2.244-9.969c-2.616,4.568-4.11,1.246-4.11,1.246c-0.373-6.645-5.61-1.663-5.61-1.663
		c-5.235,0.417-8.228-2.909-8.228-2.909c-4.862-4.98-9.348,0.833-9.348,0.833c-5.234,3.738-9.723,0-9.723,0
		c-8.228-1.663-11.965,0-11.965,0c-0.748,0.829-1.123,0.413-2.244-0.417c-0.75-0.416-1.496,0-2.244,0.417
		c-6.359-1.663-7.852,4.15-7.852,4.15c-8.603-1.242-7.853,3.323-7.853,3.323c0.747,2.493-1.87,4.987-1.87,4.987
		c3.364,0,5.98,4.566,5.98,4.566c3.366,1.661-5.232,1.248-5.232,6.229c0,2.493,5.982,6.231,5.982,6.231
		c-2.244,10.386,6.73,7.061,2.242,13.706c-1.123,2.08-0.745,7.479-0.745,7.479c1.868,9.139-2.619,7.475-2.619,7.475
		c-7.479,0.832-8.227-1.66-8.227-1.66c-7.853-3.738-13.089,0.832-13.089,0.832c-2.244,3.318-8.228,4.981-8.228,4.981
		c-4.86-0.413-7.103,2.493-7.103,2.493c-4.862,0.413-11.594,0-11.594,0c-4.113,1.245-4.486-1.244-4.486-1.244
		c-5.236-3.324-7.48,0.831-7.48,0.831c-13.463,2.906-12.34-2.493-12.34-2.493c-4.486-7.893-8.6-0.418-8.6-0.418
		c-1.121,2.08-5.236-1.244-5.608,2.911c-1.497,3.735-4.114-2.493-4.114-2.493c-1.124-2.076-5.984-1.25-5.984-1.25
		c-2.617-3.738-6.355-2.49-6.355-2.49c-6.732-1.66-4.488-6.646-4.488-6.646c-4.861-8.722,1.495-7.477,1.495-7.477
		c3.364-2.49,0.747-10.799,0.747-10.799c1.497-6.228-1.496-8.308-1.496-8.308c-2.244-3.32-0.37-7.477-0.37-7.477
		c2.989-7.891,11.216-9.551,11.216-9.551c1.123-7.891,7.854-7.891,7.854-7.891c11.219-6.231,6.73-15.783,6.73-15.783
		c0-8.724-1.87-10.8-1.87-10.8c-4.113-6.647,3.364-10.8,3.364-10.8l0,0l8.229-3.323l0,0c5.61-3.738,6.357-7.89,6.357-7.89
		c-1.872-3.324-9.349-2.909-9.349-2.909c-12.715-7.89,0-7.89,0-7.89c7.854-3.738,9.722,1.245,9.722,1.245l0,0l4.861-8.722l0,0
		c3.739,2.076,10.844,5.814,10.844,5.814c8.229,6.646,9.723,1.663,9.723,1.663s3.367-3.738,1.496-10.799
		c0,0-4.486-1.245,1.871-9.138c0,0,1.492-10.385,7.477-9.968c5.984-7.063,11.968-5.401,14.212-7.894
		c2.989-3.321,8.228,0.417,13.089-2.077c1.12,2.907,11.216-2.074,15.705,5.814c8.6,8.307,12.34,13.292,18.322,11.631
		c6.357,1.245,14.213,0,14.213,0c12.711-8.308,11.963,8.305,11.963,8.305c10.844,5.4,8.227,9.97,8.227,9.97
		c1.497,5.399,4.861,6.231,4.861,6.231c5.984,2.491,4.861,8.306,4.861,8.306c0.75,10.8,6.358,0,6.358,0
		c2.991-9.969,9.347-4.983,9.347-4.983c1.124,4.568,8.227-0.416,8.227-0.416c7.106,2.074,2.994,4.154,2.994,4.154
		c-2.615,3.321,2.242,5.399,2.617,1.245c2.615-3.325,5.982-1.245,5.982-1.245c0.376,2.074-4.862,4.983-3.367,10.798
		c-2.242,13.29,1.869,13.29,1.869,13.29c4.49,1.248,5.238,6.648,5.238,6.648c1.496,4.982-1.498,6.644-1.498,6.644
		c-4.11,0.415-0.372,7.891-0.372,7.891c3.366,8.725-6.357,5.399-6.357,5.399c-6.357-8.307-9.722-2.491-9.722-2.491
		c-4.113,5.816,0,9.552,0,9.552c4.859,4.57,0,5.815,0,5.815C820.183,418.383,827.285,425.859,827.285,425.859L827.285,425.859
		L827.285,425.859z"/>
	<path fill-rule="evenodd" fill="#D0E4C3" stroke="#000000" stroke-width="0.216" d="M604.417,301.252
		c-5.608,9.969,0,7.893,1.868,15.786c0,0,3.365,7.06,0,11.627c-4.487,4.986-4.487-1.245-8.226,0.831c0,0-3.366,4.569-7.854,2.492
		c0,0-0.747-5.813-6.355-9.551c0,0-3.367,0-4.861-4.154c0,0-3.365,4.568-5.984,6.645c0,0-4.484,0.831-4.112,6.231
		c0,0,1.122,7.891-4.487,4.568c0,0-2.615-4.982-6.357,1.247c0,0-4.114,7.89-6.358-0.831c0,0-7.102-4.568-11.591-1.247
		c0,0-8.601-3.321-5.611,6.23c0,0-4.484,4.987-4.109,9.556c0,0-8.602,6.228-9.726,2.076c0,0-2.243-4.57-8.228-0.417
		c0,0-4.859,4.154-6.73,0c0,0-8.225-2.491-18.321-0.415c0,0-5.236-2.492-5.983,7.062c0,0-4.113,5.399-2.244,7.475
		c0,0,2.244,4.983-3.364,3.321c0,0-6.36-2.077-13.464,7.479c-2.618,2.492-5.235-4.985-13.089,4.983
		c-7.477-2.491-1.492-6.231-1.492-6.231c2.617-7.89-2.245-9.138-2.245-9.138c-2.617-0.414,2.993-8.305-3.365-7.889
		c-4.488-1.663,0.373-6.23-5.609-10.8c-5.609-1.247-0.748-7.891-4.489-6.644c-2.99-0.418-1.121-6.231-1.121-6.231
		c-5.234-1.248-2.245-9.138-2.245-9.138c-7.852,0-2.242-6.648-0.372-5.817c5.234-7.062,2.244-13.707,2.244-13.707
		c5.235-2.493,1.868,4.154,5.235,3.325c4.485,1.244,7.477-4.154,7.477-4.154c1.87-4.983,10.097-4.57,10.097-4.57
		c2.62-7.889,6.732,0,6.732,0c5.234,0,8.228,3.323,8.228,3.323c3.365,2.493,2.242-4.984,2.242-4.984
		c0-9.552,4.861-3.322,4.861-3.322c10.844-4.568,14.212-0.417,14.212-0.417c10.844-0.414,11.966-7.06,11.966-7.06
		c0.375-4.984,8.602-9.554,8.602-9.554c0-4.568,0.371-8.719,0.371-8.719c3.365-5.817,2.994-14.955,2.994-14.955
		c-0.375-14.121,6.729-10.799,6.729-10.799c4.115-6.23,8.602-0.415,8.602-0.415c3.368,3.737,11.594,1.663,11.594,1.663
		c7.104,0.83,8.227-13.706,8.227-13.706c4.861-1.663,2.24-8.724,2.24-8.724c0.377-4.154,6.734-4.154,5.238-6.645
		c-0.748-6.647,7.854-9.138,7.854-9.138c0.747,7.89,7.477,8.722,7.477,8.722c0,11.629,4.115,10.385,4.115,10.385
		c4.109,0,4.859,5.814,4.859,5.814c2.992,2.492,0.749,9.554,0.749,9.554c-5.982,1.245,3.363,7.89,3.363,7.89
		c7.107,3.324,7.107,9.554,7.107,9.554c8.228,1.246,7.106,7.059,7.106,7.059c7.103,6.646,0.748,7.479,0.748,7.479
		c-4.491,5.814,0.373,11.626,0.373,11.626C604.791,292.114,604.417,301.252,604.417,301.252L604.417,301.252L604.417,301.252z"/>
	<path fill-rule="evenodd" fill="#D0E4C3" stroke="#000000" stroke-width="0.216" d="M621.62,421.703
		c-8.602-9.967-7.107,4.572-13.465,2.078c0,0-8.226-4.566-8.226,9.552c0,0,3.363,12.462-14.21,9.136c0,0-8.603-7.473-11.593,0
		c0,0-5.607,9.557-7.104,2.08c0,0-3.366-7.061-7.854-1.66c0,0-8.229,2.906-4.486-5.817c0,0,0-6.645-4.861-8.722
		c0,0-8.602-6.229-3.364-7.891c0,0,6.357-5.814-4.114-6.646c0,0-2.244-4.568-8.975,3.322c0,0,2.243-6.646-7.854-4.984
		c0,0-8.6,2.494-9.721-4.566c0,0-3.742-10.383-14.211-2.079c-4.486,7.062-3.74-2.077-15.334,1.663
		c-3.365-0.414-4.859,4.151-7.478,0.416c0,0-9.349-4.572-14.209,1.66c0,0-4.862,1.662-9.348,0
		c-4.861,2.075-7.478-7.061-13.088-7.061c0,0-1.497,3.322-7.106,2.076c-5.608-7.058-0.748-14.952-0.748-14.952
		c2.993-8.308,6.357-5.4,6.357-5.4c3.739,7.062,8.227-1.245,8.227-1.245c7.855-9.969,10.844-2.908,13.462-5.4
		c7.104-9.556,13.464-7.479,13.464-7.479c5.607,1.663,3.364-3.321,3.364-3.321c-1.869-2.076,2.244-7.475,2.244-7.475
		c0.747-9.554,5.983-7.062,5.983-7.062c10.097-2.076,18.321,0.415,18.321,0.415c1.871,4.154,6.73,0,6.73,0
		c5.984-4.153,8.228,0.417,8.228,0.417c1.124,4.151,9.726-2.076,9.726-2.076c-0.375-4.568,4.109-9.556,4.109-9.556
		c-2.989-9.551,5.611-6.23,5.611-6.23c4.489-3.321,11.591,1.247,11.591,1.247c2.244,8.721,6.358,0.831,6.358,0.831
		c3.742-6.229,6.357-1.247,6.357-1.247c5.609,3.323,4.487-4.568,4.487-4.568c-0.372-5.401,4.112-6.231,4.112-6.231
		c2.619-2.077,5.984-6.645,5.984-6.645c1.494,4.154,4.861,4.154,4.861,4.154c5.608,3.738,6.355,9.551,6.355,9.551
		c4.488,2.077,7.854-2.492,7.854-2.492c3.738-2.076,3.738,4.155,8.226-0.831c3.365-4.567,0-11.627,0-11.627
		c-1.868-7.893-7.477-5.817-1.868-15.786c3.738,1.249,5.607,4.986,5.607,4.986c11.22,0.414,14.214,5.813,14.214,5.813
		c2.989,3.324,4.859,7.063,4.859,7.063c7.479,0,6.73,5.813,6.73,5.813c1.867,10.386,5.608,4.154,8.227,7.061
		c3.365,2.493,8.227,0.831,8.227,0.831c14.209-2.907,16.453,4.154,16.453,4.154l0,0l-4.861,8.722l0,0c0,0-1.867-4.983-9.722-1.245
		c0,0-12.715,0,0,7.89c0,0,7.477-0.415,9.349,2.909c0,0-0.747,4.152-6.357,7.89l0,0l-8.229,3.323l0,0c0,0-7.478,4.152-3.364,10.8
		c0,0,1.87,2.076,1.87,10.8c0,0,4.488,9.552-6.73,15.783c0,0-6.73,0-7.854,7.891C632.836,411.736,624.238,413.813,621.62,421.703
		L621.62,421.703L621.62,421.703z"/>
	<path fill-rule="evenodd" fill="#D0E4C3" stroke="#000000" stroke-width="0.216" d="M383.79,420.043
		c5.983-1.66,7.852-8.724,7.852-8.724c1.498-9.967,4.863-0.831,4.863-0.831c4.86,4.986,13.462,3.324,13.462,3.324
		c5.234-5.399,8.599,0.414,8.599,0.414c10.096,1.248,10.096-4.15,10.096-4.15c-1.12-6.23,6.357-5.817,6.357-5.817
		c5.61,1.247,7.106-2.076,7.106-2.076c5.61,0,8.227,9.136,13.088,7.061c4.486,1.662,8.599,0,8.599,0
		c2.246,4.982-1.867,4.568-1.867,4.568c-6.359,4.57-0.376,12.463-0.376,12.463c4.86,2.906,3.74,15.781,3.74,15.781
		c4.487-0.418,4.113,8.307,4.113,8.307c-1.12,13.293,10.844,9.139,10.844,9.139c8.226,1.242,13.088-2.908,13.088,4.154
		c5.986,7.891,1.125,12.875,1.125,12.875c-0.746,5.399,1.868,12.459,1.868,12.459c0.749,6.646,10.096,5.397,10.096,5.397
		c11.966-2.073,3.741,5.818,4.489,7.481c0.373,2.907,8.975,2.907,9.346,6.643c6.357,11.633-6.729,13.291-6.729,13.291
		c-9.726,0.417-7.106,4.568-7.106,4.568c-1.119,3.325,3.741,5.398,3.741,5.398c4.486,4.57,3.365,11.632,3.365,11.632
		c-1.871,9.138,2.989,9.138,2.989,9.138c-3.364,3.736-9.347,4.156-9.347,4.156c-2.246,2.488-11.594,2.906-11.594,2.906
		c-4.86-1.248-1.495,10.381-1.495,10.381c-0.749,9.139-7.479,12.461-7.479,12.461c1.121,5.401-3.741,9.971-3.741,9.971
		c-2.989,8.723-6.354,9.549-6.354,9.549c-5.61-4.566-5.985-12.044-5.985-12.044l0,0l-5.235-5.813l0,0
		c-0.748-4.57-5.609-8.724-10.471-4.57c-5.982,4.57,0.375,7.478,0.375,7.478l0,0l6.731,4.984l0,0
		c5.982,2.906,7.105,9.965,7.105,9.965c5.982,9.554-0.748,13.709-0.748,13.709l0,0l-14.584,17.027v-6.229l-6.731,4.154l0,0
		c-7.105,0.416-6.358,7.477-6.358,7.477c-1.869,2.906-6.73,1.248-6.73,1.248c-1.497,2.907,3.738,3.738,1.87,8.306
		c-5.235,4.983-8.977-1.246-8.977-1.246l0,0l-0.372-7.891l-1.496-5.4l0,0c-4.114,2.49-2.244,10.383-2.244,10.383
		c-3.74,8.723,0,14.124,0,14.124c-1.87,10.794,2.992,7.89,2.992,7.89c5.982-0.83,4.861,10.386,4.861,10.386
		c-1.123,13.289-6.733,13.289-6.733,13.289s2.619-9.968-2.243-14.538c0,0-0.375-5.814-10.47-7.063c0,0-13.089-2.904-18.698,4.988
		c0,0-9.723,0.412-13.088,9.552l0,0l-5.609-4.985l0,0c0,0-4.862,2.078-3.365,5.402c0,0,0,7.475-11.965,1.244
		c-5.61-6.231-10.846-2.496-13.837-7.89c0,0-5.236-2.493-5.236-11.63c0,0-2.99,0.414-3.364-2.907c0,0,3.74-7.894,8.974-3.738
		c0,0,2.618-1.663,6.73,0c0,0,6.357,2.49,4.114-12.047c0,0-7.104-1.661,4.487-9.554c0,0,5.609-2.076,5.982-6.646
		c0,0,5.609,1.247,4.49-7.473c0,0-3.742-7.063,7.477-7.893c0,0,6.357-0.416,5.235-6.23c0,0-3.365-4.568,1.497-8.305
		c0,0,6.73-4.572,0-8.726c0,0-2.992-0.413-2.992-5.813c0,0,3.74-2.494,0-9.14c0,0-1.869-5.815,5.235-10.384c0,0,4.862,0,7.479-3.736
		c0,0,5.609-4.982,5.234,9.135c-2.989,8.724,4.863,5.401,4.113,1.663c0,0,0.75-7.062,3.366-2.493c0,0,0.748,2.908,4.86-1.244
		c3.742-5.398,2.617,4.152,8.227,4.152c0,6.646,6.357,6.646,6.357,0.83c0,0,5.235-8.307,8.977,2.908c0,0,0,8.723,4.86,0.414
		c0,0,11.219,1.662,13.089-1.245c0,0-3.366-6.229-6.731-5.401c-0.748-4.152-8.227-5.813-6.733-8.719c0,0,4.49,0.415,2.992-9.139
		c0,0,2.245-7.891,0-10.801c0,0,2.245-9.137-11.591-12.042c-4.113-6.231-7.479-3.738-8.975-8.725l0,0l1.121-10.798l0,0
		c0,0-9.347-2.491-5.235-4.57c4.115,0.416,0.75-9.551,3.366-11.629c0,0,3.741-11.629-4.487-9.138
		c0.373,4.153-7.478,8.72-7.854-0.829c0,0-1.868-10.386-10.845-9.555c0,0-3.365-3.321-1.867-12.461c0,0,4.861-3.323,3.364-9.967
		c0,0-0.748-4.986,1.87-6.23c0,0,4.112-2.076-0.749-6.644c-1.497-4.155,5.609-0.833-1.121-11.632c0,0-1.123-8.724-7.482-4.569
		C392.761,422.95,392.017,432.918,383.79,420.043L383.79,420.043L383.79,420.043z"/>
	<path fill-rule="evenodd" fill="#D0E4C3" stroke="#000000" stroke-width="0.216" d="M516.166,552.539c0,0-4.488,0-2.617-9.138
		c0,0,1.121-7.062-3.365-11.632c0,0-4.86-2.073-3.741-5.398c0,0-2.619-4.151,7.106-4.568c0,0,13.086-1.658,6.729-13.291
		c-0.371-3.735-8.973-3.735-9.346-6.643c-0.748-1.663,7.477-9.555-4.489-7.481c0,0-9.347,1.249-10.096-5.397
		c0,0-2.614-7.06-1.868-12.459c0,0,4.861-4.984-1.125-12.875c0-7.063-4.862-2.912-13.088-4.154c0,0-11.964,4.154-10.844-9.139
		c0,0,0.375-8.725-4.113-8.307c0,0,1.12-12.875-3.74-15.781c0,0-5.983-7.893,0.376-12.463c0,0,4.484,0.832,2.243-3.736
		c4.862-6.648,14.583-2.492,14.583-2.492c2.618,3.735,4.112-0.83,7.478-0.416c11.594-3.74,10.848,5.399,15.334-1.663
		c10.469-8.304,14.211,2.079,14.211,2.079c1.121,7.061,9.721,4.566,9.721,4.566c10.097-1.662,7.854,4.984,7.854,4.984
		c6.73-7.891,8.975-3.322,8.975-3.322c10.472,0.832,4.114,6.646,4.114,6.646c-5.237,1.662,3.364,7.891,3.364,7.891
		c4.861,2.077,4.861,8.722,4.861,8.722c-3.742,8.724,4.486,5.817,4.486,5.817c4.488-5.4,7.854,1.66,7.854,1.66
		c1.497,7.477,7.104-2.08,7.104-2.08c2.99-7.473,11.593,0,11.593,0c17.573,3.326,14.21-9.136,14.21-9.136
		c0-14.118,8.226-9.552,8.226-9.552c6.357,2.494,4.863-11.631,13.465-2.078c0,0-1.874,3.74,0.37,7.061c0,0,2.993,2.08,1.496,8.308
		c0,0,2.617,8.309-0.747,10.799c0,0-6.356-1.245-1.495,7.477c0,0-2.244,4.985,4.488,6.646c-0.749,4.985,3.738,5.402,1.869,9.14
		c0,0,2.617,7.474-3.74,4.567c0,0-2.617,0.832-2.241,4.152c0,0,5.607,0.418,5.981,2.494c0,0,1.12,5.398,0.371,10.385
		c0,0,2.619,7.059-6.729,7.891c0,0-6.359,3.32-3.737,10.387c-0.75,1.242,7.851,1.655,7.477,4.979
		c0.749,6.646-8.227,0.415-6.733,4.158c0,0,4.489,1.658,2.245,4.15c0,0-2.988,3.738-8.977,4.985c0,0,9.726,1.245,1.874,3.738
		c0,0-6.734,3.321-9.351,0.832c0,0-7.852-4.987-10.471,1.661c-4.487,2.49-7.852-4.573-9.722,2.49c0,0-5.982-4.151-11.217,5.399
		c0,0-8.977-0.831-10.098,2.074c-2.994-12.457,2.243-21.181,2.243-21.181c-9.726,12.462-7.104,17.443-7.104,17.443
		c3.738,16.2-1.871,14.125-1.871,14.125c-2.989,1.244-9.347-3.324-9.347-3.324c-5.237,2.076-11.593,2.906-11.593,2.906l0,0
		l3.738-13.291l0,0c-4.115,9.553-10.469,14.121-10.469,14.121C523.271,557.938,516.166,552.539,516.166,552.539L516.166,552.539
		L516.166,552.539z"/>
	<path fill-rule="evenodd" fill="#D0E4C3" stroke="#000000" stroke-width="0.216" d="M562.535,545.476
		c1.121-2.905,10.098-2.074,10.098-2.074c5.234-9.551,11.217-5.399,11.217-5.399c1.87-7.063,5.234,0,9.722-2.49
		c2.619-6.648,10.471-1.661,10.471-1.661c2.616,2.489,9.351-0.832,9.351-0.832c7.852-2.493-1.874-3.738-1.874-3.738
		c5.988-1.247,8.977-4.985,8.977-4.985c2.244-2.492-2.245-4.15-2.245-4.15c-1.493-3.743,7.482,2.488,6.733-4.158
		c0.374-3.323-8.227-3.736-7.477-4.979c-2.622-7.066,3.737-10.387,3.737-10.387c9.348-0.832,6.729-7.891,6.729-7.891
		c0.749-4.986-0.371-10.385-0.371-10.385c-0.374-2.076-5.981-2.494-5.981-2.494c-0.376-3.32,2.241-4.152,2.241-4.152
		c6.357,2.906,3.74-4.567,3.74-4.567c1.869-3.737-2.618-4.154-1.869-9.14c0,0,4.113-1.248,6.729,2.49c0,0,4.487-0.826,5.611,1.25
		c0,0,2.617,6.229,4.114,2.493c0.372-4.155,4.487-0.831,5.608-2.911c0,0,4.113-7.475,8.6,0.418c0,0-1.123,5.399,12.34,2.493
		c0,0,2.244-4.155,7.48-0.831c0,0,0.373,2.489,4.486,1.244c0,0,7.105,0.413,11.967,0c0,0-0.373,7.893,3.74,12.875
		c0,0,0,9.969,6.73,5.814c0,0,2.99-9.136,6.73,4.154c0,0-2.617,9.969,2.617,13.707c0,0-1.494,7.474,3.738,9.139
		c0,0,0.75,4.984,3.738,4.984c0,0,5.608-1.248,5.608,4.152c0,0,7.856,3.322,0,7.891c0,0,1.874,4.984-2.239,6.646
		c0,0-7.854,5.815,0,6.231c0,0,4.486,2.075,3.364,5.813c0,0-1.872,5.398,7.103,7.061c0,0,0,4.57,6.359,5.401
		c0,0,6.729-1.663,5.982,12.462c0,0-1.494,4.979,5.609,4.565c-5.236,5.401-11.965,5.815-11.965,5.815
		c-5.609,4.567-4.862,10.797-4.862,10.797c-4.113-4.98-7.478-4.15-7.478-4.15c-2.993,0-4.861,2.491-4.861,2.491
		c-3.365,2.491-9.352,0-9.352,0c-3.736,0-5.233-5.815-11.591-4.983c-2.989,0-3.739-6.648-7.104-6.231
		c1.123,7.063-4.486,7.894-4.486,7.894l0,0l-6.732-2.08l-13.088,2.08l0,0c-0.375,0.83-0.746,1.658-0.746,2.49
		c0,0-2.994-2.907-6.731-2.076c0,0,0.747,4.154-1.125,6.643c-1.869-0.828-2.241,4.988-2.241,4.988
		c-7.105,9.139-11.967-2.494-11.967-2.494c-6.73,0.831-8.227-8.721-8.227-8.721c-2.245,11.215-10.096,5.813-10.096,5.813
		c-1.87,5.815-17.579,3.738-17.579,3.738c-18.319,7.062-22.806,2.493-22.806,2.493c-5.986-2.493-7.107-8.307-7.107-8.307
		c-7.854-0.416-10.098-3.738-10.098-3.738c-2.616-3.74-12.34-4.984-12.34-4.984c-6.732,1.66-7.852-3.739-7.852-3.739l0,0
		l9.723-2.073l0,0c4.113,2.073,7.103-4.987,7.103-4.987c-2.239-6.231-8.974-6.645-8.974-6.645c-1.871-0.419-3.738-0.419-5.235-0.419
		c-1.869-2.076,2.245-3.736,1.87-6.642c4.488,0,7.105-1.248,7.105-1.248c6.73,0.417,10.472,4.153,10.472,4.153
		c5.233,4.155,11.964-2.074,11.964-2.074l0,0l5.236-1.662l0,0c-1.496-2.907-9.723-4.57-9.723-4.57l0,0l-10.096-0.412l0,0
		C564.031,554.2,562.535,545.476,562.535,545.476L562.535,545.476L562.535,545.476z"/>
	<path fill-rule="evenodd" fill="#D0E4C3" stroke="#000000" stroke-width="0.216" d="M81.269,329.082l-7.854-0.83l0,0
		c0,0-1.121-4.57-6.73-4.57c0,0-5.609,0.832-6.731-5.815c0,0,0.374-8.308-5.61-4.983c0,0-4.86-0.415-5.608-4.569
		c0,0-2.993-1.663-1.496-14.538l0,0l-9.724-2.907l0,0c-4.113-6.231-6.355-5.814-7.852-4.154c-0.748,1.248-1.123,3.738-1.123,3.738
		c-7.104,4.154-7.852,10.798-7.852,10.798c-4.488,4.155-4.488,12.461-4.488,12.461s-3.367,10.385-13.462,16.199
		c-2.992,6.23-2.617,17.028-2.617,17.028c7.102-2.49,6.355,6.23,6.355,6.23c4.488,0.831,3.367,6.23,3.367,6.23
		c-0.747,6.646,4.114,5.399,4.114,5.399c7.103-1.661,2.243,6.231,7.853,8.308c-0.374,11.217,7.104,7.891,7.104,7.891
		c7.105-4.154,10.096,6.646,6.73,7.478c-1.496,6.644,0.375,8.307,0.375,8.307c5.235,0,3.738-8.721,13.086-5.4
		c4.488-14.539,11.967-3.321,11.967-3.321c4.861,9.552,12.34,7.889,12.34,7.889c4.489-2.907,11.592,2.908,11.592,2.908
		c4.488-0.828,7.479,7.062,14.584,4.986c4.862-0.833,9.724,6.643,19.071,3.738c7.854-2.079,12.715-1.663,15.706,0
		c5.985-10.8-0.372-14.953-0.372-14.953c-4.487-2.078,1.12-7.478-2.245-9.555c-2.99-10.382-7.479-11.212-7.479-11.212
		c-2.992-8.724-5.981-2.08-5.981-2.08c-11.967,1.663-7.479-6.644-7.479-6.644c2.241-14.952-1.124-10.799-1.124-10.799
		c-5.233-0.415-7.103,2.909-7.103,2.909c-6.357,1.246-2.619-4.568-2.619-4.568c-0.374-3.741-3.738-4.154-3.738-4.154
		c-4.113-1.247-1.121-9.138-9.348-8.725C87.251,333.235,81.269,329.082,81.269,329.082L81.269,329.082L81.269,329.082z"/>
	<path fill-rule="evenodd" fill="#D0E4C3" stroke="#000000" stroke-width="0.216" d="M669.855,594.076
		c0,3.32,1.871,5.814,1.871,5.814c2.617-3.742,6.355,2.49,6.355,2.49c0,6.646,3.368,3.739,3.368,3.739
		c0-5.815,3.738-4.157,3.738-4.157c5.982-2.486,8.972,5.818,8.972,5.818l0,0l1.124,7.477l0,0c1.124-5.4,2.994-3.741,2.994-3.741
		c0.374-3.322,4.487-2.49,4.487-2.49c4.114-0.832,5.98,6.646,5.98,6.646c-0.375,6.646,5.61,7.477,5.61,7.477
		c2.618,0,4.862-5.398,4.862-5.398c0-3.326-3.368-3.738-3.368-3.738c-1.12-0.416-1.87-0.832-2.243-1.66c2.992-5.4,9.348,0,9.348,0
		c0.377,7.059-2.241,8.305-2.241,8.305c-4.114,6.23-2.993,9.968-2.993,9.968c2.993,1.247,5.611-5.397,5.611-5.397
		c2.989-6.646,6.73-7.477,6.73-7.477c-2.244,6.23-2.617,11.215-2.617,11.215l0,0l4.484-3.738l0,0
		c1.869,2.49,0.749,9.549,0.749,9.549c7.106,0,9.347,4.573,9.347,4.573c4.862,0.415,7.106,6.646,7.106,6.646
		c4.113,2.905,4.113,6.644,4.113,6.644l0,0v7.06l0,0c-2.243,5.4,1.497,8.721,1.497,8.721c4.486,0.418,7.852,3.742,7.852,3.742
		c7.107,1.659,13.092,6.229,13.092,6.229c0.744-2.489,4.111-3.738,4.111-3.738c-6.357,0.832-11.967-7.887-11.967-7.887
		c-6.357-9.14-14.957-21.187-14.957-21.187c-7.479-10.384-11.219-20.351-11.219-20.351c-6.357,4.981-4.113-8.727-4.113-8.727
		c-3.742-1.658-1.498-9.137-1.498-9.137c-5.608,0-8.598-6.645-8.598-6.645c-0.749-3.322,5.609-2.076,5.609-2.076l0,0l1.868-1.662
		l0,0c0.374,7.476,3.738,12.046,3.738,12.046c0.376,8.306,8.604,24.507,8.604,24.507c2.242,3.322,11.592,17.859,11.592,17.859
		c6.728,9.97,14.582,17.857,14.582,17.857c3.738,6.649,17.949-0.832,17.949-0.832c3.365-1.654,8.602-13.705,8.602-13.705
		c6.357,13.293,13.835,5.818,13.835,5.818c1.869-8.309,11.218-7.063,11.218-7.063c8.602-2.076,15.707,0.832,15.707,0.832
		c6.73,0.83,7.477,6.23,7.477,6.23c-1.119,6.232-10.094,10.798-10.094,10.798c-2.244,3.321-0.748,12.876-0.748,12.876
		c7.852,7.063-3.367,8.721-3.367,8.721c-5.607-1.244-6.357,4.155-6.357,4.155c-3.364,1.245-13.088-2.075-13.088-2.075
		c-1.122,4.982-5.609,4.15-5.609,4.15c-4.484,4.985-8.973-2.492-8.973-2.492c-1.498-3.738-5.612-4.569-5.612-4.569
		c-4.483-6.644-14.581-1.659-14.581-1.659c-3.74,5.402-3.74,8.721-3.74,8.721c-2.617,5.817-8.603,9.139-8.603,9.139
		c-8.226,2.075-7.478,12.874-7.478,12.874c-2.99,5.401-8.975-3.737-8.975-3.737c-5.607,5.4-10.844,3.737-10.844,3.737
		c-6.359,0-9.349,6.649-9.349,6.649c-4.86-2.494-13.464,10.381-13.464,10.381c-4.484,3.324-0.371,12.46-8.975,12.045
		c-4.113,7.061-9.346,13.293-14.956,15.369c-10.471,3.321-19.447,0-19.447,0c-2.618-3.738-5.606-6.23-5.606-6.23
		c-0.748-4.57-7.853-2.492-7.853-2.492c-4.863-1.658-7.107-9.138-7.107-9.138c0.376-3.322,4.488-0.829,10.099-6.646
		c0-5.816-6.732-9.139,2.99-20.352c2.244-10.386-3.737-21.6-3.737-21.6c-4.113-7.889-11.97-10.797-11.97-10.797
		c-8.225,9.135-11.963,2.49-11.963,2.49c-0.748-3.325-8.602-9.97-8.602-9.97c-10.473-8.72-15.334-5.397-15.334-5.397
		c-3.736-1.246-7.85,6.646-13.087,3.324c-11.965-7.063,0-15.369,0-15.369c1.122-3.323,11.595-7.894,11.595-7.894
		c2.99-6.645,12.711-11.628,12.711-11.628c3.742-6.229,10.473-9.969,10.473-9.969c9.723,0.415,14.586-5.814,14.586-5.814l0,0
		l9.347-4.57l0,0c9.722,3.324,8.226-2.074,8.226-2.074l0,0l2.244-5.816l0,0c-10.47,7.06-5.607-8.721-5.607-8.721l0,0l-1.871-5.401
		l0,0c-0.375-2.073-1.494-2.907-1.872-3.325c2.245-2.488,1.125-6.643,1.125-6.643C666.49,590.751,669.855,594.076,669.855,594.076
		L669.855,594.076L669.855,594.076z"/>
	<path fill-rule="evenodd" fill="#D0E4C3" stroke="#000000" stroke-width="0.216" d="M692.295,468.639c0,0,2.242-2.906,7.103-2.493
		c0,0,5.983-1.663,8.228-4.981c0,0,5.236-4.57,13.089-0.832c0,0,0.747,2.492,8.227,1.66c0,0,4.487,1.664,2.619-7.475
		c0,0-0.378-5.398,0.745-7.479c4.488-6.646-4.486-3.32-2.242-13.706c0,0-5.982-3.738-5.982-6.231c0-4.98,8.599-4.567,5.232-6.229
		c0,0-2.616-4.566-5.98-4.566c0,0,2.617-2.494,1.87-4.987c0,0-0.75-4.565,7.853-3.323c0,0,1.492-5.813,7.852-4.15
		c0.748-0.417,1.494-0.833,2.244-0.417c1.121,0.831,1.496,1.247,2.244,0.417c0,0,3.737-1.663,11.965,0c0,0,4.488,3.738,9.723,0
		c0,0,4.485-5.814,9.348-0.833c0,0,2.992,3.326,8.228,2.909c0,0,5.237-4.982,5.61,1.663c0,0,1.494,3.322,4.11-1.246
		c0,0-2.243,3.738,2.244,9.969c0,0,7.856,2.076,1.122,7.057c0,0,0.377,4.986,5.235,2.496c0,0,1.124-3.738,5.983,1.242
		c0,0,0,4.156,5.609-1.242c0,0,4.113,2.904,5.982,0.416c0,0,1.498-3.325,6.359-0.832c0.746,4.983,3.364,3.738,3.364,3.738
		c3.366,0,3.739,6.231,3.739,6.231c1.871,4.151,4.862,9.967,4.862,9.967c4.858-1.661,7.103,3.321,7.103,3.321
		c1.871,3.324,4.113-3.321,7.107,2.494c3.737,0.413,7.851,5.814,7.851,5.814c8.229-0.832,5.612,4.982,5.612,4.982
		c-8.602,2.078-2.99,4.153-2.99,4.153s4.111,1.663-2.622,3.323c-3.363-0.417,0.749,5.813-4.86,3.737
		c-10.098,1.247-4.86,6.233-4.86,6.233c2.244,4.154-2.993,6.643-2.993,6.643c9.351,2.078,9.351,10.386,9.351,10.386
		c9.722,0,7.478,5.401,7.478,5.401c1.121,3.734-2.242,4.15-2.242,4.15c-8.229,1.663-1.123,8.309-1.123,8.309
		c-7.48,5.396-13.463,13.289-13.463,13.289c-15.703-7.473-28.791,14.537-28.791,14.537c-8.229-7.473-15.706-2.907-15.706-2.907
		c-14.212,2.907-19.072,14.122-19.072,14.122c-0.745,4.984-7.852,8.309-7.852,8.309l0,0l-11.968,12.461l0,0
		c-6.359,2.49-3.365-5.818-3.365-5.818c-1.869-6.228-4.486,0.418-4.486,0.418c-1.123,4.982-2.992,8.305-5.236,10.798
		c-7.104,0.413-5.609-4.565-5.609-4.565c0.747-14.125-5.982-12.462-5.982-12.462c-6.359-0.831-6.359-5.401-6.359-5.401
		c-8.975-1.662-7.103-7.061-7.103-7.061c1.122-3.738-3.364-5.813-3.364-5.813c-7.854-0.416,0-6.231,0-6.231
		c4.113-1.662,2.239-6.646,2.239-6.646c7.856-4.568,0-7.891,0-7.891c0-5.4-5.608-4.152-5.608-4.152
		c-2.988,0-3.738-4.984-3.738-4.984c-5.232-1.665-3.738-9.139-3.738-9.139c-5.234-3.738-2.617-13.707-2.617-13.707
		c-3.74-13.29-6.73-4.154-6.73-4.154c-6.73,4.154-6.73-5.814-6.73-5.814C692.295,476.531,692.295,468.639,692.295,468.639
		L692.295,468.639L692.295,468.639z"/>
</g>
<g id="Aqua">
	
		<line fill-rule="evenodd" fill="#D0E4C3" stroke="#00AFDF" stroke-width="0.6109" stroke-linejoin="round" x1="480.642" y1="115.592" x2="480.266" y2="109.364"/>
	
		<line fill-rule="evenodd" fill="#D0E4C3" stroke="#00AFDF" stroke-width="0.6109" stroke-linejoin="round" x1="246.926" y1="363.556" x2="238.699" y2="363.556"/>
	<path fill-rule="evenodd" fill="#D0E4C3" stroke="#00B1D4" stroke-width="0.3053" stroke-linejoin="round" d="M570.762,556.695
		c-6.73-2.495-8.227-10.803-8.227-10.803c-2.994-12.874,2.243-21.598,2.243-21.598c-9.726,12.462-7.104,17.443-7.104,17.443
		c3.738,16.2-1.871,14.125-1.871,14.125c-2.989,1.244-9.347-3.324-9.347-3.324c-5.237,2.076-11.593,2.906-11.593,2.906"/>
</g>
<g id="Border">
	<path fill-rule="evenodd" fill="none" d="M47.239,293.776c0,0,1.496-6.645-3.738-10.799c0,0-6.358-2.49-1.872-10.799
		c0,0,3.366-3.738,1.124-15.369c0,0-2.619,0-1.497-9.551c0,0-7.106-1.245,15.705-24.088c0,0,23.561-31.985,47.492-46.937
		c0,0-1.497-7.476,11.219-7.062c0,0,9.348,2.078,8.227-4.153c0,0-1.496-6.231,5.981-5.817c0,0,1.122-13.289-4.484-22.844
		c0,0-5.611-4.151,0.373-6.231c0,0,2.992-1.243,7.852,0c0-4.981-10.098-4.981-11.593-23.673c-2.618-3.322,0.748-11.215-4.486-12.045
		c-5.61-1.244-2.619-9.552-5.235-10.382c0,0-4.116-2.077,1.868-10.385"/>
</g>
<g id="Kiev">
</g>
<g id="Punkt">
	<g id="_10">
	</g>
</g>
<g id="Regions">
</g>
<g id="State">
</g>
</svg>
